# Blender v2.90.1 OBJ File: 'table.blend'
# www.blender.org
o Plane_Plane.001
v 0.000000 -11.485281 0.000000
v 17.485283 0.000000 0.000000
v -17.485283 0.000000 0.000000
v 0.000000 11.485281 0.000000
v -16.970562 8.485281 0.000000
v -8.485281 13.970562 0.000000
v 16.970562 8.485281 0.000000
v 8.485281 13.970562 0.000000
v 8.485281 -13.970562 0.000000
v 16.970562 -8.485281 0.000000
v -8.485281 -13.970562 0.000000
v -16.970562 -8.485281 0.000000
vt 0.000000 0.000000
vt 1.000000 1.000000
vt 0.000000 1.000000
vt 1.000000 1.000000
vt 0.000000 1.000000
vt 1.000000 0.000000
vt 1.000000 1.000000
vt 0.000000 0.000000
vt 1.000000 0.000000
vt 0.000000 0.000000
vt 1.000000 0.000000
vt 0.000000 1.000000
vn 0.0000 0.0000 1.0000
s off
f 1/1/1 4/2/1 3/3/1
f 3/3/1 6/4/1 5/5/1
f 2/6/1 8/7/1 4/2/1
f 2/6/1 9/8/1 10/9/1
f 3/3/1 11/10/1 1/1/1
f 1/1/1 2/6/1 4/2/1
f 3/3/1 4/2/1 6/4/1
f 2/6/1 7/11/1 8/7/1
f 2/6/1 1/1/1 9/8/1
f 3/3/1 12/12/1 11/10/1
