# Blender v2.90.1 OBJ File: 'table.blend'
# www.blender.org
o Cube
v 13.500000 1.067726 -20.000000
v 6.101405 -6.396214 -6.101405
v 13.500000 1.067726 20.000000
v 6.101405 -6.396214 6.101405
v -13.500000 1.067726 -20.000000
v -6.101405 -6.396214 -6.101405
v -13.500000 1.067726 20.000000
v -6.101405 -6.396214 6.101405
v -9.000000 1.067726 0.000000
v 9.000000 1.067726 0.000000
v -12.450000 1.067726 -10.000000
v 12.450000 1.067726 -10.000000
v -12.450000 1.067726 10.000000
v 12.450000 1.067726 10.000000
v -14.375000 1.067726 -15.000000
v -10.125000 1.067726 -5.000000
v 14.375000 1.067726 -15.000000
v 10.125000 1.067726 -5.000000
v -10.125000 1.067726 5.000000
v -14.375000 1.067726 15.000000
v 10.125000 1.067726 5.000000
v 14.375000 1.067726 15.000000
v -6.101405 -6.396214 0.000000
v 6.101405 -6.396214 0.000000
v 0.000000 1.067726 -22.000000
v 6.750000 1.067726 -20.799999
v -6.750000 1.067726 -20.799999
v 0.000000 1.067726 22.000000
v -6.750000 1.067726 20.799999
v 6.750000 1.067726 20.799999
v -5.833724 1.976138 19.484133
v -11.748234 1.976138 18.748419
v 12.676504 1.976138 14.150214
v 11.909807 1.976138 18.748419
v -12.514931 1.976138 -13.439033
v -11.748234 1.976138 -18.037237
v 5.995297 1.976138 -18.772951
v 11.909807 1.976138 -18.037237
v -8.790979 1.976138 4.953799
v -7.805227 1.976138 0.355591
v 8.952553 1.976138 -4.242616
v 7.966800 1.976138 0.355591
v -8.790979 1.976138 -4.242616
v -10.828199 1.976138 -8.840823
v 12.676504 1.976138 -13.439033
v 10.989773 1.976138 -8.840823
v -12.514931 1.976138 14.150214
v -10.828199 1.976138 9.552005
v 8.952553 1.976138 4.953799
v 10.989773 1.976138 9.552005
v -5.833724 1.976138 -18.772951
v -2.960444 0.987372 -20.065426
v 5.995297 1.976138 19.484133
v 2.960444 0.987372 20.065426
v -5.920889 0.987372 19.502844
v -11.841778 0.987372 18.752733
v 12.609301 0.987372 14.064551
v 11.841778 0.987372 18.752733
v -12.609301 0.987372 -14.064551
v -11.841778 0.987372 -18.752733
v 5.920889 0.987372 -19.502844
v 11.841778 0.987372 -18.752733
v -8.881334 0.987372 4.688183
v -7.894518 0.987372 -0.000000
v 8.881334 0.987372 -4.688184
v 7.894518 0.987372 -0.000000
v -8.881334 0.987372 -4.688184
v -10.920751 0.987372 -9.376367
v 12.609301 0.987372 -14.064551
v 10.920751 0.987372 -9.376367
v -12.609301 0.987372 14.064551
v -10.920751 0.987372 9.376367
v 8.881334 0.987372 4.688183
v 10.920751 0.987372 9.376367
v -5.920889 0.987372 -19.502844
v -0.000000 0.987372 -20.628008
v 5.920889 0.987372 19.502844
v -0.000000 0.987372 20.628008
v 1.559414 1.976138 20.035919
v -1.397841 1.976138 20.035919
v -2.960444 0.987372 20.065426
v 3.375000 1.067726 21.400000
v -3.375000 1.067726 21.400000
v -1.397841 1.976138 -19.324738
v 1.559414 1.976138 -19.324738
v 3.375000 1.067726 -21.400000
v -3.375000 1.067726 -21.400000
v 2.960444 0.987372 -20.065426
vt 0.380279 0.754350
vt 0.444589 0.821801
vt 0.428926 0.852087
vt 0.787667 0.300710
vt 0.928736 0.422886
vt 0.908736 0.433080
vt 0.666354 0.009611
vt 0.711171 0.041244
vt 0.748944 0.163786
vt 0.751309 0.084736
vt 0.870257 0.454885
vt 0.791307 0.130723
vt 0.793277 0.207170
vt 0.829224 0.171444
vt 0.870140 0.209507
vt 0.916148 0.249545
vt 0.837223 0.251947
vt 0.959584 0.289656
vt 0.991157 0.334430
vt 0.825440 0.423252
vt 0.785302 0.379760
vt 0.745303 0.333773
vt 0.743334 0.257326
vt 0.707387 0.293052
vt 0.666471 0.254989
vt 0.620463 0.214951
vt 0.699388 0.212549
vt 0.577027 0.174840
vt 0.545453 0.130066
vt 0.958992 0.392770
vt 0.948735 0.412692
vt 0.969249 0.372847
vt 0.627875 0.031416
vt 0.607875 0.041610
vt 0.577618 0.071727
vt 0.587875 0.051804
vt 0.567361 0.091649
vt 0.303064 0.139409
vt 0.379510 0.117852
vt 0.311533 0.157417
vt 0.667638 0.917295
vt 0.570178 0.944000
vt 0.657719 0.889102
vt 0.066201 0.321313
vt 0.057580 0.422654
vt 0.008462 0.422341
vt 0.494754 0.902075
vt 0.484498 0.937685
vt 0.520350 0.184033
vt 0.465006 0.145537
vt 0.467988 0.100197
vt 0.634708 0.361210
vt 0.560368 0.312739
vt 0.571358 0.278573
vt 0.693490 0.443530
vt 0.618169 0.388118
vt 0.110375 0.264628
vt 0.099668 0.339135
vt 0.061741 0.502854
vt 0.105462 0.501855
vt 0.321757 0.670049
vt 0.271556 0.597286
vt 0.346977 0.655747
vt 0.259881 0.182109
vt 0.272873 0.152912
vt 0.868782 0.727249
vt 0.904119 0.626753
vt 0.949404 0.622370
vt 0.239465 0.606874
vt 0.184128 0.550456
vt 0.513615 0.224889
vt 0.287474 0.104281
vt 0.387638 0.096983
vt 0.565385 0.984347
vt 0.718097 0.422188
vt 0.782571 0.491649
vt 0.145280 0.555939
vt 0.903495 0.535704
vt 0.863958 0.546656
vt 0.816472 0.475270
vt 0.390054 0.046143
vt 0.400554 0.732771
vt 0.078197 0.413240
vt 0.118145 0.345286
vt 0.110897 0.482753
vt 0.275666 0.576045
vt 0.538968 0.315675
vt 0.492918 0.225346
vt 0.769605 0.508079
vt 0.678023 0.458849
vt 0.185880 0.529764
vt 0.702509 0.846561
vt 0.650538 0.873844
vt 0.827789 0.709542
vt 0.885114 0.624109
vt 0.847287 0.559286
vt 0.570378 0.926008
vt 0.415350 0.717327
vt 0.460115 0.808959
vt 0.445825 0.150368
vt 0.507235 0.886436
vt 0.143710 0.295310
vt 0.598479 0.397538
vt 0.230643 0.147790
vt 0.356796 0.636220
vt 0.184835 0.221120
vt 0.799538 0.756045
vt 0.762674 0.812281
vt 0.722254 0.875602
vt 0.838486 0.717693
vt 0.825829 0.776448
vt 0.820087 0.756293
vt 0.701552 0.868543
vt 0.782866 0.833529
vt 0.115045 0.308228
vt 0.160955 0.196525
vn 0.5666 0.7808 -0.2634
vn 0.0797 -0.8902 -0.4485
vn -0.6013 -0.7920 0.1052
vn -0.7981 -0.5183 -0.3073
vn 0.0534 -0.8913 -0.4503
vn -0.7942 -0.4826 -0.3693
vn -0.9123 -0.3543 -0.2053
vn -0.9123 -0.3543 0.2053
vn -0.7942 -0.4826 0.3693
vn -0.7981 -0.5183 0.3073
vn -0.6013 -0.7920 -0.1052
vn 0.6013 -0.7920 -0.1052
vn 0.7981 -0.5183 0.3073
vn 0.7942 -0.4826 0.3693
vn 0.9123 -0.3543 0.2053
vn 0.9123 -0.3543 -0.2053
vn 0.7942 -0.4826 -0.3693
vn 0.7981 -0.5183 -0.3073
vn 0.6013 -0.7920 0.1052
vn -0.0797 -0.8902 -0.4485
vn -0.0534 -0.8913 -0.4503
vn 0.0000 -0.9052 -0.4250
vn -0.0534 -0.8913 0.4503
vn -0.0797 -0.8902 0.4485
vn 0.0797 -0.8902 0.4485
vn 0.0534 -0.8913 0.4503
vn 0.0000 -0.9052 0.4250
vn 0.1009 -0.5966 0.7962
vn 0.0672 0.8387 0.5404
vn 0.0461 0.9203 -0.3886
vn 0.5402 0.8154 -0.2080
vn -0.5708 0.7911 0.2198
vn -0.6096 0.7808 0.1371
vn -0.5770 0.8073 -0.1237
vn 0.0687 0.9197 -0.3866
vn 0.4197 0.9050 -0.0700
vn 0.6811 0.7175 0.1460
vn 0.0900 -0.6843 0.7236
vn -0.0625 0.8473 0.5275
vn 0.6993 0.6442 0.3098
vn -0.6158 0.7340 0.2864
vn -0.0485 0.9195 -0.3901
vn 0.4473 0.8909 0.0783
vn -0.5516 0.7975 -0.2444
vn 0.6411 0.7305 0.2352
vn -0.4123 0.9085 0.0687
vn -0.5193 0.8331 -0.1905
vn -0.3968 0.9153 -0.0694
vn 0.6101 0.7804 -0.1373
vn 0.0000 1.0000 0.0000
vn -0.8873 0.2411 -0.3931
vn 0.9093 0.1291 -0.3956
vn 0.9007 -0.1876 0.3918
vn -0.9104 0.2444 -0.3339
vn -0.1867 -0.0045 -0.9824
vn 0.1257 -0.0162 -0.9919
vn 0.9837 -0.0799 -0.1610
vn 0.9307 -0.1467 0.3352
vn -0.1257 -0.0093 -0.9920
vn -0.9842 0.0670 -0.1641
vn -0.9777 0.0141 0.2096
vn -0.9143 -0.0081 0.4051
vn 0.9657 -0.2058 0.1581
vn -0.9383 0.0340 0.3442
vn 0.9336 0.1236 -0.3363
vn -0.1007 -0.5787 0.8093
vn -0.1521 -0.5795 0.8006
vn 0.9786 0.0034 -0.2060
vn 0.9659 -0.1603 0.2033
vn -0.0453 0.9303 -0.3641
vn -0.9857 -0.0370 0.1644
vn -0.9674 0.1453 -0.2074
vn 0.0000 -1.0000 0.0000
vn 0.0940 0.8437 0.5285
vn -0.0610 0.8693 0.4905
vn 0.1866 -0.0350 -0.9818
vn 0.5253 -0.8239 0.2128
vn -0.5652 -0.7942 0.2234
vn -0.0104 0.9982 -0.0585
vn 0.0108 0.9983 -0.0568
vn -0.6418 -0.7273 -0.2432
vn 0.5962 -0.7688 -0.2315
vn 0.0104 0.9982 0.0585
vn -0.0108 0.9983 0.0568
vn 0.5971 0.7573 -0.2646
vn -0.8802 -0.4745 0.0000
vn 0.8802 -0.4745 0.0000
vn 0.0997 -0.5895 0.8016
vn 0.0631 0.8441 0.5325
vn 0.0489 0.9181 -0.3932
vn 0.5617 0.8013 -0.2060
vn -0.5903 0.7776 0.2165
vn -0.6247 0.7693 0.1339
vn -0.5613 0.8179 -0.1263
vn 0.0456 0.9292 -0.3668
vn 0.4240 0.9026 -0.0742
vn 0.6641 0.7326 0.1494
vn 0.1500 -0.5957 0.7891
vn -0.0666 0.8422 0.5351
vn 0.6675 0.6769 0.3104
vn -0.6449 0.7088 0.2857
vn -0.0457 0.9215 -0.3857
vn 0.4415 0.8943 0.0736
vn -0.5243 0.8159 -0.2438
vn 0.6192 0.7481 0.2384
vn -0.4175 0.9057 0.0731
vn -0.5003 0.8442 -0.1926
vn -0.3930 0.9172 -0.0655
vn 0.6278 0.7667 -0.1346
vn -0.8830 0.2697 -0.3841
vn 0.9098 0.0985 -0.4031
vn 0.9031 -0.1556 0.4001
vn -0.9064 0.2681 -0.3265
vn -0.1209 -0.2004 -0.9722
vn 0.1234 -0.0296 -0.9919
vn 0.9821 -0.0936 -0.1637
vn 0.9322 -0.1186 0.3420
vn -0.1234 0.0042 -0.9923
vn -0.9836 0.0808 -0.1610
vn -0.9786 -0.0025 0.2060
vn -0.9162 -0.0411 0.3986
vn 0.9676 -0.1944 0.1613
vn -0.9408 0.0055 0.3389
vn 0.9343 0.0982 -0.3427
vn -0.1019 -0.5858 0.8040
vn -0.0909 -0.6764 0.7309
vn 0.9777 -0.0129 -0.2096
vn 0.9676 -0.1441 0.2074
vn -0.0680 0.9215 -0.3823
vn -0.9857 -0.0490 0.1614
vn -0.9658 0.1612 -0.2033
vn 0.0616 0.8666 0.4951
vn -0.0927 0.8484 0.5212
vn 0.1204 -0.2192 -0.9682
vn -0.0108 0.9983 -0.0568
vn 0.0104 0.9982 -0.0585
vn 0.0108 0.9983 0.0568
vn -0.0104 0.9982 0.0585
s off
f 21/1/1 50/2/1 14/3/1
f 2/4/2 86/5/2 26/6/2
f 7/7/3 20/8/3 8/9/3
f 20/8/4 13/10/4 8/9/4
f 1/11/5 2/4/5 26/6/5
f 19/12/6 8/9/6 13/10/6
f 23/13/7 19/12/7 9/14/7
f 16/15/8 23/13/8 9/14/8
f 11/16/9 6/17/9 16/15/9
f 15/18/10 6/17/10 11/16/10
f 5/19/11 6/17/11 15/18/11
f 2/4/12 1/11/12 17/20/12
f 17/20/13 12/21/13 2/4/13
f 18/22/14 2/4/14 12/21/14
f 24/23/15 18/22/15 10/24/15
f 21/25/16 24/23/16 10/24/16
f 14/26/17 4/27/17 21/25/17
f 22/28/18 4/27/18 14/26/18
f 3/29/19 4/27/19 22/28/19
f 6/17/20 87/30/20 25/31/20
f 6/17/21 5/19/21 27/32/21
f 2/4/22 6/17/22 25/31/22
f 7/7/23 8/9/23 29/33/23
f 8/9/24 83/34/24 29/33/24
f 4/27/25 82/35/25 28/36/25
f 4/27/26 3/29/26 30/37/26
f 8/9/27 4/27/27 28/36/27
f 51/38/28 60/39/28 75/40/28
f 30/41/29 34/42/29 53/43/29
f 26/44/30 38/45/30 1/46/30
f 14/3/31 33/47/31 22/48/31
f 11/49/32 35/50/32 15/51/32
f 9/52/33 43/53/33 16/54/33
f 9/52/34 39/55/34 40/56/34
f 86/57/35 37/58/35 26/44/35
f 17/59/36 38/45/36 45/60/36
f 10/61/37 41/62/37 42/63/37
f 51/38/38 52/64/38 84/65/38
f 29/66/39 32/67/39 7/68/39
f 18/69/40 46/70/40 41/62/40
f 16/54/41 44/71/41 11/49/41
f 27/72/42 36/73/42 51/38/42
f 22/48/43 34/42/43 3/74/43
f 19/75/44 48/76/44 39/55/44
f 12/77/45 45/60/45 46/70/45
f 20/78/46 32/67/46 47/79/46
f 13/80/47 47/79/47 48/76/47
f 15/51/48 36/73/48 5/81/48
f 10/61/49 49/82/49 21/1/49
f 62/83/50 61/84/50 69/85/50
f 46/70/51 65/86/51 41/62/51
f 44/71/52 67/87/52 68/88/52
f 39/55/53 72/89/53 63/90/53
f 45/60/54 70/91/54 46/70/54
f 54/92/55 53/43/55 77/93/55
f 32/67/56 55/94/56 56/95/56
f 47/79/57 56/95/57 71/96/57
f 48/76/58 71/96/58 72/89/58
f 53/43/59 58/97/59 77/93/59
f 33/47/60 58/97/60 34/42/60
f 42/63/61 73/98/61 49/82/61
f 49/82/62 74/99/62 50/2/62
f 36/73/63 59/100/63 60/39/63
f 50/2/64 57/101/64 33/47/64
f 35/50/65 68/88/65 59/100/65
f 37/58/66 62/83/66 38/45/66
f 37/58/67 88/102/67 61/84/67
f 43/53/68 64/103/68 67/87/68
f 40/56/69 63/90/69 64/103/69
f 87/104/70 51/38/70 84/65/70
f 38/45/71 69/85/71 45/60/71
f 41/62/72 66/105/72 42/63/72
f 24/23/73 4/27/73 8/9/73
f 69/85/50 61/84/50 70/91/50
f 76/106/50 65/86/50 70/91/50
f 88/102/50 70/91/50 61/84/50
f 67/87/50 76/106/50 68/88/50
f 52/64/50 68/88/50 76/106/50
f 68/88/50 75/40/50 59/100/50
f 60/39/50 59/100/50 75/40/50
f 58/97/50 57/101/50 77/93/50
f 56/95/50 55/94/50 71/96/50
f 57/101/50 74/99/50 77/93/50
f 71/96/50 55/94/50 72/89/50
f 74/99/50 73/98/50 77/93/50
f 73/98/50 54/92/50 77/93/50
f 63/90/50 72/89/50 55/94/50
f 81/107/50 63/90/50 55/94/50
f 73/98/50 66/105/50 78/108/50
f 63/90/50 78/108/50 64/103/50
f 66/105/50 65/86/50 76/106/50
f 67/87/50 64/103/50 76/106/50
f 78/108/50 66/105/50 64/103/50
f 76/106/50 64/103/50 66/105/50
f 53/43/74 82/109/74 30/41/74
f 31/110/75 83/111/75 80/112/75
f 31/110/76 81/107/76 55/94/76
f 80/112/77 83/111/77 81/107/77
f 54/92/78 82/109/78 79/113/78
f 82/109/79 78/108/79 28/114/79
f 83/111/80 78/108/80 81/107/80
f 85/115/81 86/57/81 88/102/81
f 84/65/82 52/64/82 87/104/82
f 87/104/83 76/106/83 25/116/83
f 86/57/84 76/106/84 88/102/84
f 21/1/85 49/82/85 50/2/85
f 2/4/2 25/31/2 86/5/2
f 23/13/86 8/9/86 19/12/86
f 16/15/86 6/17/86 23/13/86
f 24/23/87 2/4/87 18/22/87
f 21/25/87 4/27/87 24/23/87
f 6/17/20 27/32/20 87/30/20
f 8/9/24 28/36/24 83/34/24
f 4/27/25 30/37/25 82/35/25
f 51/38/88 36/73/88 60/39/88
f 30/41/89 3/74/89 34/42/89
f 26/44/90 37/58/90 38/45/90
f 14/3/91 50/2/91 33/47/91
f 11/49/92 44/71/92 35/50/92
f 9/52/93 40/56/93 43/53/93
f 9/52/94 19/75/94 39/55/94
f 86/57/95 85/115/95 37/58/95
f 17/59/96 1/46/96 38/45/96
f 10/61/97 18/69/97 41/62/97
f 51/38/98 75/40/98 52/64/98
f 29/66/99 31/110/99 32/67/99
f 18/69/100 12/77/100 46/70/100
f 16/54/101 43/53/101 44/71/101
f 27/72/102 5/81/102 36/73/102
f 22/48/103 33/47/103 34/42/103
f 19/75/104 13/80/104 48/76/104
f 12/77/105 17/59/105 45/60/105
f 20/78/106 7/68/106 32/67/106
f 13/80/107 20/78/107 47/79/107
f 15/51/108 35/50/108 36/73/108
f 10/61/109 42/63/109 49/82/109
f 46/70/110 70/91/110 65/86/110
f 44/71/111 43/53/111 67/87/111
f 39/55/112 48/76/112 72/89/112
f 45/60/113 69/85/113 70/91/113
f 54/92/114 79/113/114 53/43/114
f 32/67/115 31/110/115 55/94/115
f 47/79/116 32/67/116 56/95/116
f 48/76/117 47/79/117 71/96/117
f 53/43/118 34/42/118 58/97/118
f 33/47/119 57/101/119 58/97/119
f 42/63/120 66/105/120 73/98/120
f 49/82/121 73/98/121 74/99/121
f 36/73/122 35/50/122 59/100/122
f 50/2/123 74/99/123 57/101/123
f 35/50/124 44/71/124 68/88/124
f 37/58/125 61/84/125 62/83/125
f 37/58/126 85/115/126 88/102/126
f 43/53/127 40/56/127 64/103/127
f 40/56/128 39/55/128 63/90/128
f 87/104/129 27/72/129 51/38/129
f 38/45/130 62/83/130 69/85/130
f 41/62/131 65/86/131 66/105/131
f 8/9/73 23/13/73 24/23/73
f 23/13/73 6/17/73 24/23/73
f 6/17/73 2/4/73 24/23/73
f 88/102/50 76/106/50 70/91/50
f 52/64/50 75/40/50 68/88/50
f 73/98/50 78/108/50 54/92/50
f 81/107/50 78/108/50 63/90/50
f 53/43/132 79/113/132 82/109/132
f 31/110/133 29/66/133 83/111/133
f 31/110/134 80/112/134 81/107/134
f 82/109/135 54/92/135 78/108/135
f 83/111/136 28/114/136 78/108/136
f 87/104/137 52/64/137 76/106/137
f 86/57/138 25/116/138 76/106/138
